# Blender v2.76 (sub 0) OBJ File: 'tron_building.blend'
# www.blender.org
mtllib tron_building.mtl
o Cube
v -1.000000 0.338419 1.000000
v -1.467524 0.338419 -0.322561
v 1.000000 0.338419 -0.322560
v 1.552973 0.338419 1.000000
v -1.000000 5.704896 0.999999
v -1.467523 5.704896 -0.322561
v 1.000000 5.704896 -0.322560
v 1.552974 5.704896 1.000000
vt 0.639003 0.695603
vt 0.807337 0.639859
vt 0.807337 0.934068
vt 0.639003 1.000000
vt 0.168334 0.695602
vt 0.168334 1.000000
vt 0.000000 0.934068
vt 0.000000 0.639858
vt 1.000000 0.000000
vt 1.000000 0.639858
vt 0.821458 0.639858
vt 0.821458 0.000000
vt 0.639003 0.000000
vt 0.639003 0.639859
vt 0.324940 0.639859
vt 0.324939 0.000000
vt 0.000000 0.000000
vn 0.000000 -1.000000 0.000000
vn 0.000000 1.000000 -0.000000
vn -0.942800 0.000000 0.333300
vn 0.000000 -0.000000 -1.000000
vn 0.922600 -0.000000 -0.385700
vn -0.000000 0.000000 1.000000
usemtl Tron_Building
s off
f 1/1/1 2/2/1 3/3/1 4/4/1
f 5/5/2 8/6/2 7/7/2 6/8/2
f 1/9/3 5/10/3 6/11/3 2/12/3
f 2/13/4 6/14/4 7/15/4 3/16/4
f 3/12/5 7/11/5 8/14/5 4/13/5
f 5/16/6 1/15/6 4/8/6 8/17/6
